<?xml version="1.0" encoding="UTF-8"?>
<svg width="24" height="24" version="1.1" viewBox="0 0 24 24" xmlns="http://www.w3.org/2000/svg">
 <path d="m6.794 22.23c-3.099-0.3702-4.571-2.192-5.384-4.937-0.813-2.745-0.9141-7.205-0.1579-9.861 0.7561-2.656 2.014-5.23 4.431-5.618 0.7004-0.1124 1.932-0.1577 1.98 0.7387 0.04244 0.7901-0.1079 1.962-0.2976 2.842-0.08254 0.3832-0.3222 1.486-0.4421 1.686-0.54 0.9013-1.692 0.6988-2.811 0.7151-1.335 1.221-1.385 6.969-0.05486 8.428 0.9043-0.1274 2.193-0.3832 2.848 0.2022 0.7919 0.7069 0.7335 1.754 0.6272 2.848m13.94-4.835c-2.794 2.678-7.234 1.986-10.91 1.913-0.02174-2.03-0.2146-5.862 0.5774-8.753 0.4447-1.623 2.109-3.056 3.77-3.577 5.966-1.87 11.33 5.846 6.562 10.42zm-7.669-4.755h5.165m-5.165 2.582h4.796m-9.592 9.914c0.7499-0.1651 1.284-1.066 2.044-1.019 0.6136 0.03777 0.9235 0.9827 1.537 1.019 0.755 0.04522 1.272-1.063 2.027-1.019 0.6184 0.03549 0.9354 0.9846 1.553 1.019 0.7502 0.04179 1.26-1.059 2.01-1.019 0.6232 0.03319 1.403 0.7609 1.571 1.019" fill="none" stroke="#fff" stroke-linecap="round" stroke-linejoin="round" stroke-width="1.311"/>
</svg>
