<?xml version="1.0" encoding="UTF-8"?>
<svg width="666.3" height="690" version="1.1" viewBox="0 0 666.3 690" xmlns="http://www.w3.org/2000/svg" xmlns:xlink="http://www.w3.org/1999/xlink">
 <defs>
  <clipPath id="clipPath36">
   <path transform="translate(-1168 -1504)" d="m659.1 1236h536.1v536.1h-536.1z"/>
  </clipPath>
  <clipPath id="clipPath38">
   <path transform="translate(-942.9 -1761)" d="m659.1 1236h536.1v536.1h-536.1z"/>
  </clipPath>
 </defs>
 <path transform="matrix(1.333 0 0 -1.333 666.3 354.3)" d="m0 0c0-133-107.8-240.8-240.8-240.8-133 0-240.8 107.8-240.8 240.8 0 133 107.8 240.8 240.8 240.8 133 0 240.8-107.8 240.8-240.8" clip-path="url(#clipPath36)" fill="#7a1f6b"/>
 <path transform="matrix(1.333 0 0 -1.333 365.6 12.48)" d="m0 0c8.149-11.87 14.42-27.82 13.28-47.93-0.465-8.247 0.807-16.89 0.102-21.1-0.92-5.539-4.245-8.612-6.576-12.93-4.759-8.831-10.63-16.32-10.1-27.47 0.013-0.286 0.028-0.59 0.065-0.906 0.836-7.359 33.33-0.712 33.33-0.712s-10.14-4.669-19.11-7.77c-5.292-1.835-11.54-2.432-11.33-3.065 3.533-10.62 9.856-25.08 17.08-38.57 12.09-22.59 25.95-43.07 18.36-50.66-3.196-3.198-10.19-7.379-14.67-9.39-12.06-5.411-21.12-0.878-25.82-7.626-3.387-4.868-5.41-19.15 2.091-25.72 7.503-6.565 2.809-14.07-4.692-17.82-7.498-3.75-16.88-6.565-16.88-6.565s6.564-5.627 7.502-9.38c0.933-3.748 5.625-13.13-2.815-15-3.61-0.802-8.487 0.625-13.2-0.619-6.31-1.665-15.58-3.949-13.52-5.935 0 0 0-34.29-7.583-42.21-7.586-7.916-30.34-20.12-61.99-7.587-31.66 12.53-61.33 36.93-80.46 26.38-19.13-10.55-30.99-36.93-25.06-60.01 5.934-23.08 22.42-42.86 65.29-46.16 42.87-3.296 126.6 5.938 187.3-17.14 0 0 23.69-5.026 52.19-26 17.11-12.58 35.04-23.14-7.182-13.54-18.07 4.106-40.23 2.982-66.48-8.912-41.49-18.8-184.8 34.22-245 115-31.7 42.5-10.18 91.91-26 134.1-3.724 9.935-6.691 17.58-9.257 23.82-8.333 20.25 1.806 48.42 12.27 47.67 12.74-0.916 28.24-0.597 46.25 3.786 65.07 15.83 100.3 31.57 134.1 78 26.42 36.33 39.97 76.1 46.56 101.9 4.334 16.98 26.95 7.302 31.9 0.087" clip-path="url(#clipPath38)" fill="#fff"/>
</svg>
