<?xml version="1.0" encoding="UTF-8"?>
<svg width="24" height="24" version="1.1" viewBox="0 0 24 24" xmlns="http://www.w3.org/2000/svg">
 <g transform="matrix(.9812 0 0 .9812 .2978 .2378)" fill="none" stroke="#000" stroke-linecap="round" stroke-linejoin="round">
  <g transform="matrix(.1825 0 0 .1825 -.9393 -1.214)" stroke-width="7.258">
   <path d="m132 32.85c3.068 16.49-7.931 31.16-28.79 53.96-21-22.86-32.15-36.69-28.9-53.73 1.713-8.981 11.34-23.62 28.82-23.27 17.47 0.3426 27.11 13.56 28.87 23.04zm-19.74 78.05c-9.728 5.451-28.17-6.16-40.77-5.521-8.708 0.4412-15.42 9.009-19.34 16.19-1.546 2.828-2.488 7.545-5.623 9.049m-31.6-27.72c4.618 0.3644 9.4 2.581 14.52 0.5237 3.849-1.546 5.098-5.474 5.425-9.857 0.4773-6.392 0.6368-12.39 4.357-18.66 4.215-7.101 13.41-10.97 13.94-20.01 0.6926-11.88-10.87-19.25-16.42-26.55m85.05 59.92-0.5741 3.489"/>
   <path d="m115 107.8c-9.787 15.58-26.84 26.21-46.62 26.99-31.82 1.24-58.63-23.55-59.87-55.38-1.24-31.82 23.55-58.63 55.38-59.87" style="paint-order:fill markers stroke"/>
  </g>
  <path d="m19.71 5.935a1.782 1.782 0 0 1-1.782 1.782 1.782 1.782 0 0 1-1.782-1.782 1.782 1.782 0 0 1 1.782-1.782 1.782 1.782 0 0 1 1.782 1.782z" stroke-width="1.325" style="paint-order:fill markers stroke"/>
 </g>
</svg>
